<svg xmlns="http://www.w3.org/2000/svg" viewBox="0 0 500 500"><g id="freepik--background-complete--inject-71"><ellipse cx="167.33" cy="375.32" rx="53.29" ry="54.12" transform="translate(-114.01 75.8) rotate(-19.18)" style="fill:#ebebeb"></ellipse><ellipse cx="167.33" cy="375.32" rx="41.57" ry="42.21" transform="translate(-114.05 75.84) rotate(-19.19)" style="fill:#fff"></ellipse><path d="M137.32,374.83a30.56,30.56,0,0,0,29.82,30.87,29.84,29.84,0,0,0,30.21-29.89,30.56,30.56,0,0,0-29.82-30.87A29.84,29.84,0,0,0,137.32,374.83Z" style="fill:#ebebeb"></path><path d="M149.06,375a18.61,18.61,0,0,0,18.15,18.8,18.18,18.18,0,0,0,18.4-18.2,18.61,18.61,0,0,0-18.16-18.8A18.18,18.18,0,0,0,149.06,375Z" style="fill:#fff"></path><path d="M159.2,375.19a8.28,8.28,0,0,0,8.08,8.36,8.09,8.09,0,0,0,8.19-8.1,8.28,8.28,0,0,0-8.08-8.36A8.08,8.08,0,0,0,159.2,375.19Z" style="fill:#ebebeb"></path><polygon points="167.76 375.5 223.64 346.11 223.22 345.3 167.33 374.68 167.76 375.5" style="fill:#ebebeb"></polygon><polygon points="226.94 347.54 226.74 347.46 223.16 346.36 230.22 342.67 234.05 343.83 226.94 347.54" style="fill:#ebebeb"></polygon><path d="M231.07,338.14l-1.27,3.72-7.06,3.69a16.88,16.88,0,0,0,1.25-3.71Z" style="fill:#ebebeb"></path><polygon points="165.63 374.41 167.1 377.06 171.03 376.73 168.45 374.62 168.19 371.3 165.63 374.41" style="fill:#ebebeb"></polygon><path d="M349.14,363.28l6.6-10.62-3.26-2a3,3,0,0,1-1.38-2.8,14.55,14.55,0,0,0,.06-1.87,3,3,0,0,1,1.55-2.7l3.38-1.81-5.92-11-3.37,1.81a2.94,2.94,0,0,1-3.11-.2,18.31,18.31,0,0,0-1.59-1,3,3,0,0,1-1.56-2.7l.12-3.83-12.51-.39L328,328a3,3,0,0,1-1.75,2.58c-.27.13-.55.27-.82.42s-.54.3-.8.45a3,3,0,0,1-3.1,0l-3.28-2-6.6,10.63,3.26,2a3,3,0,0,1,1.38,2.8q-.07.93-.06,1.86a3,3,0,0,1-1.55,2.7l-3.38,1.81,5.92,11,3.37-1.81a3,3,0,0,1,3.11.2,17.16,17.16,0,0,0,1.58,1,3,3,0,0,1,1.57,2.7l-.11,3.84,12.5.39.12-3.84a3,3,0,0,1,1.74-2.58c.27-.13.55-.27.82-.42s.54-.3.81-.45a3,3,0,0,1,3.12,0Zm-10.58-7.89a10.25,10.25,0,1,1,4.19-13.87A10.25,10.25,0,0,1,338.56,355.39Z" style="fill:#dbdbdb"></path><path d="M83.89,51.58,79.51,44l-2.32,1.34A2.08,2.08,0,0,1,75,45.26a11.5,11.5,0,0,0-1.13-.66,2.07,2.07,0,0,1-1.15-1.85V40.07H64v2.68A2.07,2.07,0,0,1,62.8,44.6a13,13,0,0,0-1.14.66,2.07,2.07,0,0,1-2.18.07L57.16,44l-4.38,7.59,2.33,1.34a2.11,2.11,0,0,1,1,1.94c0,.21,0,.43,0,.64s0,.43,0,.65a2.07,2.07,0,0,1-1,1.92l-2.34,1.35L57.16,67l2.33-1.34a2.09,2.09,0,0,1,2.18.08,11.42,11.42,0,0,0,1.13.65A2.09,2.09,0,0,1,64,68.25v2.69h8.77V68.25a2.09,2.09,0,0,1,1.15-1.85A12.7,12.7,0,0,0,75,65.75a2.09,2.09,0,0,1,2.18-.08L79.51,67l4.38-7.59-2.33-1.34a2.08,2.08,0,0,1-1-1.93c0-.21,0-.43,0-.65s0-.43,0-.64a2.11,2.11,0,0,1,1-1.94ZM75.51,55.5a7.18,7.18,0,1,1-7.17-7.18A7.17,7.17,0,0,1,75.51,55.5Z" style="fill:#dbdbdb"></path><path d="M406.16,369.45a34.13,34.13,0,1,0,34.13,34.13A34.13,34.13,0,0,0,406.16,369.45Zm0,50.07a15.94,15.94,0,1,1,15.94-15.94A15.93,15.93,0,0,1,406.16,419.52Z" style="fill:#ebebeb"></path><polygon points="412.72 370.87 399.6 370.87 400.32 361.58 412 361.58 412.72 370.87" style="fill:#ebebeb"></polygon><polygon points="387.74 375.29 378.46 384.57 372.4 377.49 380.66 369.23 387.74 375.29" style="fill:#ebebeb"></polygon><polygon points="373.2 396.08 373.2 409.2 363.91 408.48 363.91 396.81 373.2 396.08" style="fill:#ebebeb"></polygon><polygon points="377.62 421.06 386.9 430.34 379.82 436.4 371.57 428.14 377.62 421.06" style="fill:#ebebeb"></polygon><polygon points="398.42 435.6 411.54 435.6 410.81 444.89 399.14 444.89 398.42 435.6" style="fill:#ebebeb"></polygon><polygon points="423.4 431.18 432.68 421.9 438.73 428.98 430.48 437.23 423.4 431.18" style="fill:#ebebeb"></polygon><polygon points="437.93 410.38 437.93 397.26 447.22 397.99 447.22 409.66 437.93 410.38" style="fill:#ebebeb"></polygon><polygon points="433.51 385.4 424.23 376.12 431.31 370.07 439.57 378.32 433.51 385.4" style="fill:#ebebeb"></polygon><path d="M293.2,182.57a34.13,34.13,0,1,0,34.13,34.13A34.13,34.13,0,0,0,293.2,182.57Zm0,50.07a15.94,15.94,0,1,1,15.95-15.94A15.94,15.94,0,0,1,293.2,232.64Z" style="fill:#ebebeb"></path><polygon points="299.76 183.99 286.64 183.99 287.37 174.7 299.04 174.7 299.76 183.99" style="fill:#ebebeb"></polygon><polygon points="274.78 188.41 265.5 197.69 259.45 190.61 267.7 182.35 274.78 188.41" style="fill:#ebebeb"></polygon><polygon points="260.25 209.2 260.25 222.33 250.96 221.6 250.96 209.93 260.25 209.2" style="fill:#ebebeb"></polygon><polygon points="264.67 234.18 273.95 243.46 266.87 249.52 258.61 241.26 264.67 234.18" style="fill:#ebebeb"></polygon><polygon points="285.46 248.72 298.58 248.72 297.86 258.01 286.19 258.01 285.46 248.72" style="fill:#ebebeb"></polygon><polygon points="310.44 244.3 319.72 235.02 325.78 242.1 317.52 250.35 310.44 244.3" style="fill:#ebebeb"></polygon><polygon points="324.98 223.51 324.98 210.38 334.27 211.11 334.27 222.78 324.98 223.51" style="fill:#ebebeb"></polygon><polygon points="320.56 198.53 311.28 189.25 318.36 183.19 326.61 191.44 320.56 198.53" style="fill:#ebebeb"></polygon></g><g id="freepik--Floor--inject-71"><path d="M48.75,478.14c128.93-.62,273.57-.62,402.5,0-128.93.61-273.57.61-402.5,0Z" style="fill:#263238"></path></g><g id="freepik--Arrows--inject-71"><path d="M257.46,478.13H236.31L241,46.27c.06-5.46,2.46-9.83,5.41-9.83h.48c2.95,0,5.35,4.36,5.42,9.82Z" style="fill:#246E46"></path><path d="M257.46,478.13H236.31L241,46.27c.06-5.46,2.46-9.83,5.41-9.83h.48c2.95,0,5.35,4.36,5.42,9.82Z" style="opacity:0.4"></path><g style="mix-blend-mode:multiply;opacity:0.30000000000000004"><path d="M244.78,53.05c-1.25,51.45-2.39,103-.91,154.47.3,11.54,1.5,24.13,1.91,35.6.72,63.35-8.86,126.63-3.31,190-1.29-15.79-1.88-31.64-1.89-47.49-.38-47.55,5.71-94.95,4.72-142.49-.45-11.44-1.6-24.08-1.88-35.6-1.37-51.47-.23-103,1.36-154.48Z"></path><path d="M245.62,43.92c2.32,50.4,4.47,101.27,1.12,151.66l.53-9.47c1.76-47.27,0-94.94-1.65-142.19Z"></path><path d="M243.24,387c3.83-30.81,6.55-61.76,7.56-92.79a373.91,373.91,0,0,0-1.28-46.5l-1.26-9.23c3.25,18.38,3.23,37.14,3,55.74a863,863,0,0,1-8,92.78Z"></path><path d="M250.71,175.19c-1.26,14.6-2.56,29.24-2.67,43.9-.33,4.94,1.14,23.9,3.51,7.29a75,75,0,0,0-.83-21.88,70.37,70.37,0,0,1,1.16,21.91c-.11,1.1-1,9.46-2.94,6.39-1.53-4.39-1.26-9.15-1.39-13.71.23-14.68,1.52-29.32,3.16-43.9Z"></path><path d="M252.24,333.71c-1.7,22.08-3.31,44.23-6.57,66.15a153.76,153.76,0,0,0-1.15,22.08c.28,5.44.32,11.17,2.51,16.22,5.55,9.51,5.1-19.09,5-21.41a101.52,101.52,0,0,0-.8-11c-.32-1.71-.44-3.76-1.5-5.17-1.33-.87-1.91,3.34-2.06,4.19a79.13,79.13,0,0,0-.35,16.57c.23,1.8.24,3.76,1.13,5.38-.91-1.61-.94-3.57-1.19-5.37-.37-2.22-1.17-23,2.66-21,1.17,1.51,1.25,3.53,1.6,5.34a128.1,128.1,0,0,1,.77,22.15c-.24,2.57-.36,11.92-2.92,12.72-1.35.08-2.26-1.17-2.77-2.18-2.26-5.14-2.34-10.91-2.57-16.42-.33-11.12,1.16-22.15,2.81-33.11,2.24-18.33,3.78-36.74,5.38-55.13Z"></path><path d="M242,478.13c-1.37-20.6-2.52-43.28-3.23-63.92,1.37,20.61,2.52,43.29,3.23,63.92Z"></path><path d="M247.58,478.13c1.86-8.49,1.58-17.63-1.72-25.72s-4.38-17-5.15-25.72c1,8.64,2.15,17.49,5.56,25.55a39.85,39.85,0,0,1,1.31,25.89Z"></path><path d="M252.24,348.41c-.69,16.23-1,32.56.71,48.74a255,255,0,0,1,2.62,32.43,85.76,85.76,0,0,1-1.21,16.24A99,99,0,0,0,252,461.88c-.4,5.4-.59,10.83-.48,16.25a157.71,157.71,0,0,1,.21-16.27A99.39,99.39,0,0,1,254,445.75a84.8,84.8,0,0,0,1.11-16.16,272.43,272.43,0,0,0-2.47-32.41c-1.7-16.2-1.26-32.54-.39-48.77Z"></path><path d="M248.16,36.72c.8,10.93,1.57,28.2,2.08,39.27.34,13.1,1,26.23.22,39.32.41-25.37-1.41-53.15-2.3-78.59Z"></path></g><polygon points="204.38 188.82 205.28 205.9 203.18 230.41 202.28 213.33 204.38 188.82" style="fill:#37474f"></polygon><polygon points="375.86 225.42 376.75 242.5 371.43 304.7 370.53 287.63 375.86 225.42" style="fill:#37474f"></polygon><polygon points="370.53 287.63 371.43 304.7 197.85 292.61 196.95 275.54 370.53 287.63" style="fill:#37474f"></polygon><polygon points="196.95 275.54 197.85 292.61 195.74 317.12 194.85 300.04 196.95 275.54" style="fill:#37474f"></polygon><polygon points="194.85 300.04 195.74 317.12 122.87 256.1 121.97 239.03 194.85 300.04" style="fill:#37474f"></polygon><polygon points="202.28 213.33 375.86 225.42 370.53 287.63 196.95 275.54 194.85 300.04 121.97 239.03 204.38 188.82 202.28 213.33" style="fill:#455a64"></polygon><polygon points="320.43 57.23 319.83 74.32 316.29 39.98 316.88 22.89 320.43 57.23" style="fill:#246E46"></polygon><polygon points="329.43 144.4 328.84 161.49 85.55 182.71 86.15 165.62 329.43 144.4" style="fill:#246E46"></polygon><polygon points="86.15 165.62 85.55 182.71 76.55 95.55 77.14 78.45 86.15 165.62" style="fill:#246E46"></polygon><polygon points="332.99 178.74 332.39 195.83 328.84 161.49 329.43 144.4 332.99 178.74" style="fill:#246E46"></polygon><polygon points="433.75 91.32 433.15 108.41 332.39 195.83 332.99 178.74 433.75 91.32" style="fill:#246E46"></polygon><g style="opacity:0.1"><polygon points="320.43 57.23 319.83 74.32 316.29 39.98 316.88 22.89 320.43 57.23"></polygon><polygon points="329.43 144.4 328.84 161.49 85.55 182.71 86.15 165.62 329.43 144.4"></polygon><polygon points="86.15 165.62 85.55 182.71 76.55 95.55 77.14 78.45 86.15 165.62"></polygon><polygon points="332.99 178.74 332.39 195.83 328.84 161.49 329.43 144.4 332.99 178.74"></polygon><polygon points="433.75 91.32 433.15 108.41 332.39 195.83 332.99 178.74 433.75 91.32"></polygon></g><path d="M167.14,120.11l.6-17.09H168q-.3,8.55-.59,17.09h-.28Z" style="fill:#246E46"></path><path d="M167.14,120.11h0l.6-17.09h0Z" style="fill:#246E46"></path><path d="M169.3,121.79a1.91,1.91,0,0,0-1.88-1.69q.29-8.53.59-17.09a1.9,1.9,0,0,1,1.88,1.68C169.71,109.82,169.48,116.66,169.3,121.79Z" style="fill:#246E46"></path><path d="M322.51,89.53a2,2,0,0,1,1.9,1.68,1.93,1.93,0,0,1-1.76,2.06l-9.68.84.63,6.14,8.32-.73h.24a2,2,0,0,1,1.91,1.68,1.91,1.91,0,0,1-1.76,2.06L314,104l.64,6.18,9.67-.85h.24a2,2,0,0,1,1.92,1.72,1.92,1.92,0,0,1-1.77,2l-11.57,1-.07,0a.86.86,0,0,1-.3,0,1.91,1.91,0,0,1-1.88-1.68l-2.05-19.8a1.84,1.84,0,0,1,1.77-2h.11l11.56-1Z" style="fill:#fff"></path><path d="M269.3,94.18a2,2,0,0,1,1.93,1.67l2,19.8a1.91,1.91,0,0,1-1.81,2h-.27a1.91,1.91,0,0,1-1.88-1.69L267.26,96.2a1.84,1.84,0,0,1,1.77-2Z" style="fill:#fff"></path><path d="M245.91,96.21a2,2,0,0,1,1.93,1.69l1.85,17.91,9.67-.84h.24a2,2,0,0,1,1.92,1.71,1.92,1.92,0,0,1-1.77,2l-11.56,1h-.38a1.92,1.92,0,0,1-1.89-1.67l-2-19.8a1.88,1.88,0,0,1,1.78-2Z" style="fill:#fff"></path><path d="M233.54,97.3A2,2,0,0,1,235.45,99a1.92,1.92,0,0,1-1.77,2l-9.67.85.63,6.14,8.32-.72h.24a2,2,0,0,1,1.91,1.68,1.91,1.91,0,0,1-1.77,2.05l-8.32.72.64,6.18,9.68-.85h.23a2,2,0,0,1,1.92,1.72,1.92,1.92,0,0,1-1.77,2l-11.56,1-.07,0a.91.91,0,0,1-.3,0,1.92,1.92,0,0,1-1.89-1.68l-2.05-19.79a1.86,1.86,0,0,1,1.78-2h.11l11.55-1Z" style="fill:#fff"></path><path d="M121.27,118.62a1,1,0,0,1,0,.24l0,1,0,1-.06,1.85c.05-1.37.09-2.74.14-4.11Z" style="fill:#246E46"></path><path d="M212.76,110.91c.67,6.51-4.36,12.26-11.24,12.86l-4.21.36h-.26a1.93,1.93,0,0,1-1.9-1.68l-2-19.79a1.86,1.86,0,0,1,1.77-2l4.21-.37a12.72,12.72,0,0,1,1.63,0C206.92,100.46,212.14,105,212.76,110.91Zm-11.62,9.14a8.15,8.15,0,0,0,7.65-8.8A8.36,8.36,0,0,0,200.6,104a10.54,10.54,0,0,0-1.12,0l-2.21.19,1.65,16,2.22-.19" style="fill:#fff"></path><path d="M181.65,101.82a2,2,0,0,1,1.93,1.68l2,19.79a1.9,1.9,0,0,1-1.8,2h-.28a1.89,1.89,0,0,1-1.88-1.68l-2-19.8a1.86,1.86,0,0,1,1.78-2Z" style="fill:#fff"></path><path d="M168,103a1.9,1.9,0,0,1,1.88,1.69l1.23,11.94c.56,5.33-3.59,10.09-9.3,10.6a10.48,10.48,0,0,1-1.37,0,10.16,10.16,0,0,1-9.95-8.83l-1.23-11.94a1.84,1.84,0,0,1,1.77-2h.27a2,2,0,0,1,1.92,1.67l1.24,12a6.26,6.26,0,0,0,6.13,5.44,7.85,7.85,0,0,0,.84,0,6.09,6.09,0,0,0,5.73-6.53L165.94,105a1.88,1.88,0,0,1,1.8-2Z" style="fill:#fff"></path><path d="M130.85,105.67a13.68,13.68,0,0,1,6.67,2,1.88,1.88,0,0,1,.68,2.68,2.11,2.11,0,0,1-1.82.87,2.06,2.06,0,0,1-1-.31,9.71,9.71,0,0,0-4.63-1.35,8.08,8.08,0,0,0-1.2,0,9,9,0,0,0-6.17,3,7.71,7.71,0,0,0-2.07,6.07,8,8,0,0,0,3.27,5.54,9.2,9.2,0,0,0,5.39,1.92,11.26,11.26,0,0,0,1.29,0,10.2,10.2,0,0,0,4.76-1.7l-.48-4.6-5.11.45h-.25a2,2,0,0,1-2-1.75,1.91,1.91,0,0,1,1.83-2l7-.62h.36a2,2,0,0,1,2,1.7l.77,7.43a3.36,3.36,0,0,1,0,.57l-.06.18a1.55,1.55,0,0,1-.59.9,13.58,13.58,0,0,1-7.83,3.32,15,15,0,0,1-1.77,0c-6.5-.23-12-4.79-12.64-10.95-.69-6.74,4.67-12.63,11.92-13.26A14.28,14.28,0,0,1,130.85,105.67Z" style="fill:#fff"></path><path d="M140.09,125.47a3.36,3.36,0,0,0,0-.57l-.77-7.43a2,2,0,0,0-2-1.7h-.29l-7.1.62a1.91,1.91,0,0,0-1.83,2,2,2,0,0,0,2,1.75h.25l5.11-.45.48,4.6a10.2,10.2,0,0,1-4.76,1.7,9.33,9.33,0,0,1-1.29,0,9.13,9.13,0,0,1-5.39-1.91,8,8,0,0,1-3.27-5.54,7.71,7.71,0,0,1,2.07-6.07,9,9,0,0,1,6.17-3,8.08,8.08,0,0,1,1.2,0,9.71,9.71,0,0,1,4.63,1.35,2.06,2.06,0,0,0,1,.31,2.14,2.14,0,0,0,1.82-.87,1.88,1.88,0,0,0-.68-2.68,13.68,13.68,0,0,0-6.67-2,14.28,14.28,0,0,0-1.73,0c-7.25.63-12.61,6.52-11.92,13.26.63,6.16,6.14,10.72,12.64,10.95a15,15,0,0,0,1.77,0,13.58,13.58,0,0,0,7.83-3.32,1.66,1.66,0,0,0,.6-.87l.05-.21m21.73,1.77c5.71-.51,9.86-5.27,9.3-10.6l-1.23-12A1.9,1.9,0,0,0,168,103h-.27a1.88,1.88,0,0,0-1.8,2L167.17,117a6.09,6.09,0,0,1-5.73,6.53,7.85,7.85,0,0,1-.84,0,6.26,6.26,0,0,1-6.13-5.44l-1.24-12a2,2,0,0,0-1.92-1.67H151a1.84,1.84,0,0,0-1.77,2l1.23,11.94a10.16,10.16,0,0,0,9.95,8.83,10.48,10.48,0,0,0,1.37,0M300,115.18a1.89,1.89,0,0,0,1.77-2l-2-19.49A1.93,1.93,0,0,0,297.84,92a2.25,2.25,0,0,0-.26,0,1.86,1.86,0,0,0-1.73,2l1.42,13.82-13.07-14a2,2,0,0,0-1.37-.61,2.22,2.22,0,0,0-1.39.45,1.74,1.74,0,0,0-.62,1.61l2,19.53a1.94,1.94,0,0,0,1.89,1.68H285a1.88,1.88,0,0,0,1.73-2l-1.43-13.93,12.95,13.9.2.18a2,2,0,0,0,1.3.56H300m-98.46,8.59c6.88-.6,11.91-6.35,11.24-12.86-.62-5.93-5.84-10.45-12-10.67a12.72,12.72,0,0,0-1.63,0l-4.21.37a1.86,1.86,0,0,0-1.77,2l2,19.79a1.93,1.93,0,0,0,1.9,1.68h.26l4.21-.36M324.69,113a1.92,1.92,0,0,0,1.77-2,2,2,0,0,0-1.92-1.72h-.24l-9.67.85L314,104l8.32-.72a1.91,1.91,0,0,0,1.76-2.06,2,2,0,0,0-1.91-1.68h-.24l-8.32.73L313,94.11l9.68-.84a1.93,1.93,0,0,0,1.76-2.06,2,2,0,0,0-1.9-1.68h-.25l-11.56,1h-.07a1.86,1.86,0,0,0-1.81,2l2.05,19.8a1.91,1.91,0,0,0,1.88,1.68h.37l11.57-1m-89,7.76a1.92,1.92,0,0,0,1.77-2,2,2,0,0,0-1.92-1.72h-.23l-9.68.85-.64-6.18,8.32-.72a1.91,1.91,0,0,0,1.77-2.05,2,2,0,0,0-1.91-1.68H233l-8.32.72-.63-6.14,9.67-.85a1.93,1.93,0,0,0,1.77-2,2,2,0,0,0-1.91-1.68h-.25l-11.56,1h-.07a1.87,1.87,0,0,0-1.81,2l2.05,19.79a1.92,1.92,0,0,0,1.89,1.68h.37l11.56-1m24-2.1a1.92,1.92,0,0,0,1.77-2A2,2,0,0,0,259.6,115h-.24l-9.67.84L247.84,97.9a2,2,0,0,0-1.93-1.69h-.26a1.88,1.88,0,0,0-1.78,2l2,19.8a1.92,1.92,0,0,0,1.89,1.67h.37l11.57-1m11.71-1a1.91,1.91,0,0,0,1.81-2l-2-19.8a2,2,0,0,0-1.93-1.67H269a1.84,1.84,0,0,0-1.77,2L269.31,116a1.91,1.91,0,0,0,1.88,1.69h.27m-87.64,7.64a1.9,1.9,0,0,0,1.8-2l-2-19.79a2,2,0,0,0-1.93-1.68h-.27a1.85,1.85,0,0,0-1.77,2l2,19.8a1.89,1.89,0,0,0,1.88,1.68h.28M316.88,22.89,433.75,91.32,333,178.74l-3.56-34.34L86.15,165.62l-9-87.16L320.43,57.23ZM201.14,120.05l-2.22.19-1.65-16,2.21-.19a10.54,10.54,0,0,1,1.12,0,8.36,8.36,0,0,1,8.19,7.27A8.15,8.15,0,0,1,201.14,120.05Z" style="fill:#246E46"></path><g style="opacity:0.4"><path d="M140.09,125.47a3.36,3.36,0,0,0,0-.57l-.77-7.43a2,2,0,0,0-2-1.7h-.29l-7.1.62a1.91,1.91,0,0,0-1.83,2,2,2,0,0,0,2,1.75h.25l5.11-.45.48,4.6a10.2,10.2,0,0,1-4.76,1.7,9.33,9.33,0,0,1-1.29,0,9.13,9.13,0,0,1-5.39-1.91,8,8,0,0,1-3.27-5.54,7.71,7.71,0,0,1,2.07-6.07,9,9,0,0,1,6.17-3,8.08,8.08,0,0,1,1.2,0,9.71,9.71,0,0,1,4.63,1.35,2.06,2.06,0,0,0,1,.31,2.14,2.14,0,0,0,1.82-.87,1.88,1.88,0,0,0-.68-2.68,13.68,13.68,0,0,0-6.67-2,14.28,14.28,0,0,0-1.73,0c-7.25.63-12.61,6.52-11.92,13.26.63,6.16,6.14,10.72,12.64,10.95a15,15,0,0,0,1.77,0,13.58,13.58,0,0,0,7.83-3.32,1.66,1.66,0,0,0,.6-.87l.05-.21m21.73,1.77c5.71-.51,9.86-5.27,9.3-10.6l-1.23-12A1.9,1.9,0,0,0,168,103h-.27a1.88,1.88,0,0,0-1.8,2L167.17,117a6.09,6.09,0,0,1-5.73,6.53,7.85,7.85,0,0,1-.84,0,6.26,6.26,0,0,1-6.13-5.44l-1.24-12a2,2,0,0,0-1.92-1.67H151a1.84,1.84,0,0,0-1.77,2l1.23,11.94a10.16,10.16,0,0,0,9.95,8.83,10.48,10.48,0,0,0,1.37,0M300,115.18a1.89,1.89,0,0,0,1.77-2l-2-19.49A1.93,1.93,0,0,0,297.84,92a2.25,2.25,0,0,0-.26,0,1.86,1.86,0,0,0-1.73,2l1.42,13.82-13.07-14a2,2,0,0,0-1.37-.61,2.22,2.22,0,0,0-1.39.45,1.74,1.74,0,0,0-.62,1.61l2,19.53a1.94,1.94,0,0,0,1.89,1.68H285a1.88,1.88,0,0,0,1.73-2l-1.43-13.93,12.95,13.9.2.18a2,2,0,0,0,1.3.56H300m-98.46,8.59c6.88-.6,11.91-6.35,11.24-12.86-.62-5.93-5.84-10.45-12-10.67a12.72,12.72,0,0,0-1.63,0l-4.21.37a1.86,1.86,0,0,0-1.77,2l2,19.79a1.93,1.93,0,0,0,1.9,1.68h.26l4.21-.36M324.69,113a1.92,1.92,0,0,0,1.77-2,2,2,0,0,0-1.92-1.72h-.24l-9.67.85L314,104l8.32-.72a1.91,1.91,0,0,0,1.76-2.06,2,2,0,0,0-1.91-1.68h-.24l-8.32.73L313,94.11l9.68-.84a1.93,1.93,0,0,0,1.76-2.06,2,2,0,0,0-1.9-1.68h-.25l-11.56,1h-.07a1.86,1.86,0,0,0-1.81,2l2.05,19.8a1.91,1.91,0,0,0,1.88,1.68h.37l11.57-1m-89,7.76a1.92,1.92,0,0,0,1.77-2,2,2,0,0,0-1.92-1.72h-.23l-9.68.85-.64-6.18,8.32-.72a1.91,1.91,0,0,0,1.77-2.05,2,2,0,0,0-1.91-1.68H233l-8.32.72-.63-6.14,9.67-.85a1.93,1.93,0,0,0,1.77-2,2,2,0,0,0-1.91-1.68h-.25l-11.56,1h-.07a1.87,1.87,0,0,0-1.81,2l2.05,19.79a1.92,1.92,0,0,0,1.89,1.68h.37l11.56-1m24-2.1a1.92,1.92,0,0,0,1.77-2A2,2,0,0,0,259.6,115h-.24l-9.67.84L247.84,97.9a2,2,0,0,0-1.93-1.69h-.26a1.88,1.88,0,0,0-1.78,2l2,19.8a1.92,1.92,0,0,0,1.89,1.67h.37l11.57-1m11.71-1a1.91,1.91,0,0,0,1.81-2l-2-19.8a2,2,0,0,0-1.93-1.67H269a1.84,1.84,0,0,0-1.77,2L269.31,116a1.91,1.91,0,0,0,1.88,1.69h.27m-87.64,7.64a1.9,1.9,0,0,0,1.8-2l-2-19.79a2,2,0,0,0-1.93-1.68h-.27a1.85,1.85,0,0,0-1.77,2l2,19.8a1.89,1.89,0,0,0,1.88,1.68h.28M316.88,22.89,433.75,91.32,333,178.74l-3.56-34.34L86.15,165.62l-9-87.16L320.43,57.23ZM201.14,120.05l-2.22.19-1.65-16,2.21-.19a10.54,10.54,0,0,1,1.12,0,8.36,8.36,0,0,1,8.19,7.27A8.15,8.15,0,0,1,201.14,120.05Z" style="fill:#fff"></path></g><path d="M297.84,92a1.93,1.93,0,0,1,1.89,1.65l2,19.49a1.89,1.89,0,0,1-1.77,2h-.24a2,2,0,0,1-1.3-.56l-.2-.18-12.95-13.9,1.43,13.93a1.88,1.88,0,0,1-1.73,2h-.26a1.94,1.94,0,0,1-1.89-1.68l-2-19.49a1.75,1.75,0,0,1,.61-1.65,2.22,2.22,0,0,1,1.39-.45,2,2,0,0,1,1.37.61l13.07,14L295.85,94a1.86,1.86,0,0,1,1.73-2A2.25,2.25,0,0,1,297.84,92Z" style="fill:#fff"></path></g><g id="freepik--character-2--inject-71"><path d="M449,406.94s.72,45.59.72,45.62c-.11,8.55-.36,16-.85,19.9a.13.13,0,0,1,0,.06,6,6,0,0,1-.66,2.63l0,.05c-2.57,1.69-70.87,2.79-73.26,2s-.41-7.65,2.21-9.81,28.58-14.27,28.58-14.27l-.29-46.21Z" style="fill:#ad6359"></path><path d="M449.84,443.39s-.17,9.14-.17,9.17c-.11,8.55-.36,16-.85,19.9a.13.13,0,0,1,0,.06,11.25,11.25,0,0,1-.66,2.63l0,.05c-2.57,1.69-70.87,2.79-73.26,2s-.41-7.65,2.21-9.81,28.58-14.27,28.58-14.27l.05-9.31Z" style="fill:#fff"></path><path d="M401.45,453.13c4.56-.7,10.07.16,13.43,3.5.13.13-.05.31-.2.26a63.82,63.82,0,0,0-13.23-3.19A.29.29,0,0,1,401.45,453.13Z" style="fill:#263238"></path><path d="M398.12,455c4.56-.71,10.07.16,13.43,3.5.13.13-.05.31-.2.26a63.82,63.82,0,0,0-13.23-3.19A.29.29,0,0,1,398.12,455Z" style="fill:#263238"></path><path d="M394.79,456.87c4.56-.71,10.07.16,13.43,3.5.13.12-.05.31-.2.26a63.82,63.82,0,0,0-13.23-3.19A.29.29,0,0,1,394.79,456.87Z" style="fill:#263238"></path><path d="M374.84,477.23c2.39.77,70.66.92,73.23-.78,1-.63,1.44-11.84,1.6-23.89v-.38l-44.07.22,0,.75s-25.95,12.11-28.58,14.28S372.44,476.48,374.84,477.23Z" style="fill:#246E46"></path><path d="M375.57,474.57c11.5-.47,58-1.27,69.38-.86.09,0,.09.07,0,.07-11.4.72-57.86,1.14-69.38,1C375.33,474.75,375.32,474.58,375.57,474.57Z" style="fill:#263238"></path><path d="M409.1,452.52l-25.64,25.09a81.13,81.13,0,0,1-8.63-.38c-2.39-.76-.4-7.65,2.21-9.81s28.59-14.27,28.59-14.27l0-.74,3.36,0Z" style="opacity:0.1"></path><path d="M451.25,452l-49.8.58s-1.14-84.27-1.09-111.1c.05-30.65,4.64-122.09,4.64-122.09l36.94.36a116.74,116.74,0,0,1,8,28.87c.59,4.27-.08,16.71-1.55,22.4l-1.32,74.48Z" style="fill:#263238"></path><path d="M408.31,398.77c-.44-13.31-.7-29.65-.93-43q-.7-39.94.21-79.89c.33-14.94.88-29.87,1.47-44.8,0-.17-.25-.17-.26,0-1.68,26.72-2.48,53.51-2.78,80.28s0,56.29,1,82.91c.59,14.94,1.35,29.88,2.61,44.78,0,.13.21.13.21,0C409.39,425.64,408.76,412.21,408.31,398.77Z" style="fill:#37474f"></path><path d="M408,443c9.93-.67,19.91-.69,29.86-.5,2.81.06,5.62.14,8.43.28.1,0,.09.15,0,.15-9.93.61-19.91.73-29.86.53-2.81-.05-5.62-.14-8.43-.29A.09.09,0,0,1,408,443Z" style="fill:#37474f"></path><path d="M381.32,410.31s-.17,42.88-.17,42.91c-.11,8.54-.36,16-.85,19.89a.13.13,0,0,1,0,.06,6,6,0,0,1-.66,2.63s0,.05-.05.06c-2.57,1.69-70.87,2.79-73.26,2s-.41-7.64,2.2-9.8,28.59-14.28,28.59-14.28l2.51-43.37Z" style="fill:#ad6359"></path><path d="M381.32,444.05s-.17,9.14-.17,9.17c-.11,8.54-.36,16-.85,19.89a.13.13,0,0,1,0,.06,11.83,11.83,0,0,1-.66,2.63s0,.05-.05.06c-2.57,1.69-70.87,2.79-73.26,2s-.41-7.64,2.2-9.8,28.59-14.28,28.59-14.28l0-9.31Z" style="fill:#fff"></path><path d="M332.93,453.79c4.55-.71,10.07.16,13.43,3.49.13.13-.05.32-.2.27a63.19,63.19,0,0,0-13.23-3.19A.29.29,0,0,1,332.93,453.79Z" style="fill:#263238"></path><path d="M329.6,455.66c4.55-.71,10.07.16,13.43,3.49.13.13,0,.32-.2.26a63.8,63.8,0,0,0-13.23-3.18A.29.29,0,0,1,329.6,455.66Z" style="fill:#263238"></path><path d="M326.27,457.52c4.55-.7,10.07.17,13.43,3.5.13.13-.05.31-.2.26a63.8,63.8,0,0,0-13.23-3.18A.29.29,0,0,1,326.27,457.52Z" style="fill:#263238"></path><path d="M306.31,477.89c2.4.76,70.93,1.19,73.51-.51,1-.63,1.17-12.11,1.33-24.16v-.38l-44.07.22,0,.75s-25.95,12.11-28.59,14.27S303.91,477.13,306.31,477.89Z" style="fill:#246E46"></path><path d="M307,475c11.51-.4,58-.93,69.39-.45.09,0,.09.07,0,.08-11.4.64-57.87.79-69.39.56C306.8,475.2,306.8,475,307,475Z" style="fill:#263238"></path><path d="M420.05,266.82s-27.3,64.64-29.72,75c-2.28,9.75-6.32,111.42-6.32,111.42l-48.67-.38s7.16-102.76,8.06-113.19c1.19-13.69,13.11-44.91,25.74-78.29,5.36-14.14,12.56-28,16.34-42.17l55.32.54s-.73,25-12.27,42.94C428.53,262.67,423.36,265,420.05,266.82Z" style="fill:#263238"></path><path d="M339.83,443.72c9.94-.48,19.92-.31,29.86.07,2.81.11,5.62.24,8.42.43a.08.08,0,0,1,0,.16c-9.94.42-19.93.35-29.87,0-2.81-.11-5.62-.25-8.42-.45A.09.09,0,0,1,339.83,443.72Z" style="fill:#37474f"></path><path d="M407.34,267.93a45.32,45.32,0,0,0,7.63-.62,75.54,75.54,0,0,0,7.41-2,56.62,56.62,0,0,1,7.25-1.11,25.44,25.44,0,0,0,7.11-2.05c.11-.05.19.11.09.16a43.53,43.53,0,0,1-6.83,2.88c-2.44.75-5,.83-7.46,1.41a62,62,0,0,1-7.62,1.67,27.26,27.26,0,0,1-7.6-.2C407.22,268.08,407.25,267.93,407.34,267.93Z" style="fill:#37474f"></path><path d="M402.58,308.3c.54-1.51,1-3,1.61-4.53,1.14-3,2.3-6.09,3.56-9.11,2.51-6,4.89-12,7.54-18,1.51-3.38,2.86-6.81,4.62-10.12,0-.08.2,0,.17,0-.89,3.1-2.15,6.12-3.28,9.18s-2.34,6.08-3.55,9.11c-2.4,6-4.75,12.06-7.37,18q-1.1,2.5-2.28,5c-.81,1.7-1.45,3.45-2.42,5.1-.05.09-.21.05-.19-.05C401.37,311.38,402,309.85,402.58,308.3Z" style="fill:#37474f"></path><path d="M392.45,222.58c0-.17.17-.06.16.07a54.62,54.62,0,0,1-2.76,13.51l-4.7,13-9.43,26.05c-7,19.56-14.27,39-20.75,58.75a25.31,25.31,0,0,0-1.22,6.7c-2.22,25.05-5.49,71-7.61,96.61,0,.09-.24.2-.24,0,0-.4,1.81-27.62,1.81-27.62,1.15-16.44,2.64-39.11,4-55.27.36-4.61.72-9.21,1.14-13.81a26,26,0,0,1,1.24-6.89c9.17-27.7,20.47-57.22,30.65-84.69l4.93-12.95a53.05,53.05,0,0,0,2.83-13.5Z" style="fill:#37474f"></path><path d="M414,159.06c2.93,1,10.71-2.75,14.48-6.71.25-.28.65-3.76,1.34-8,.42-2.55,1-5.38,1.63-7.93l-17-.35a42.11,42.11,0,0,1-1,10.2,6.64,6.64,0,0,1-.39,1c0,.05-.05.11-.07.17C412.07,149.38,409.4,157.49,414,159.06Z" style="fill:#ad6359"></path><path d="M412.92,147.48a10.29,10.29,0,0,0,1.62.52c8.92,2.15,14.22-7.95,15.82-11.57l-15.94-.32a42,42,0,0,1-1,10.19,5.73,5.73,0,0,1-.39,1C413,147.36,412.94,147.42,412.92,147.48Z" style="fill:#263238"></path><path d="M433.16,134c-3.06,3.86-6.43,7.08-8.85,7.8-7.81,2.34-17-1.45-18-10-.72-5.81,5.66-16.35,11.5-22.52h0c2.49-2.64,4.9-4.49,6.59-4.81,8.37-1.6,17.66,6.77,16.32,15.73C440.2,123.51,436.91,129.25,433.16,134Z" style="fill:#ad6359"></path><path d="M420.81,122.26s0,.1,0,.14c-.68.94-1.3,2.13-.65,3,0,0,0,.07,0,0C419.18,124.62,420,123,420.81,122.26Z" style="fill:#263238"></path><path d="M422.35,121.84c1.62.93-.35,4.11-1.86,3.25S421,121.06,422.35,121.84Z" style="fill:#263238"></path><path d="M415.3,119s-.11,0-.13,0c-.58,1-1.42,2.06-2.51,1.83,0,0-.06,0,0,.06C413.82,121.49,414.91,120.08,415.3,119Z" style="fill:#263238"></path><path d="M415.06,117.46c-1.51-1.1-3.61,2-2.21,3S416.32,118.39,415.06,117.46Z" style="fill:#263238"></path><path d="M424.42,121.23a13.63,13.63,0,0,1-1-1.2,2.42,2.42,0,0,1-.75-1.41.79.79,0,0,1,.61-.75,2,2,0,0,1,1.79.87,2.86,2.86,0,0,1,.75,1.94A.84.84,0,0,1,424.42,121.23Z" style="fill:#263238"></path><path d="M414.79,115.35a12.32,12.32,0,0,0,1.46.45,2.44,2.44,0,0,0,1.59.18.77.77,0,0,0,.47-.84,2,2,0,0,0-1.47-1.34,2.9,2.9,0,0,0-2.07,0A.85.85,0,0,0,414.79,115.35Z" style="fill:#263238"></path><path d="M416,131.92a1.75,1.75,0,0,1-1.19.07,3.16,3.16,0,0,1-.91-.91s-.07,0-.07,0a1.57,1.57,0,0,0,.92,1.31,1.25,1.25,0,0,0,1.32-.39C416.15,132,416.08,131.91,416,131.92Z" style="fill:#263238"></path><path d="M416.82,128.33a3.92,3.92,0,0,1-3.16.1,4.73,4.73,0,0,1-1.24-.69,1.28,1.28,0,0,1-.22-.17l-.19-.17a.27.27,0,0,1-.06-.34h0L412,127h0l.05-.08c.45-.78,1.24-1.88,1.24-1.88-.36,0-2.17-.28-1.9-.66A59.54,59.54,0,0,1,419,115c.09-.09.24,0,.16.14-2,3.12-4.58,5.87-6.66,9a7.17,7.17,0,0,1,1.88.5c.09.1-1.57,2.11-1.74,2.48a.11.11,0,0,0,0,0,5.51,5.51,0,0,0,4.15,1.07C416.89,128.17,416.93,128.29,416.82,128.33Z" style="fill:#263238"></path><path d="M413.1,127.63a4.69,4.69,0,0,0,.83,2.23,2.13,2.13,0,0,0,1.05.74c.91.28,1.38-.43,1.62-1.14a4.78,4.78,0,0,0,.23-1.16A6.08,6.08,0,0,1,413.1,127.63Z" style="fill:#263238"></path><path d="M413.93,129.86a2.13,2.13,0,0,0,1.05.74c.91.28,1.38-.43,1.62-1.14A2.18,2.18,0,0,0,413.93,129.86Z" style="fill:#ff9abb"></path><path d="M434.16,134.27c-4-2.13-3.16-8,0-11.09,0,0-11.06-5-6.42-13.54a9.51,9.51,0,0,1-9-.48l-3,2.31c-.86-1-.11-4.63,3.91-5.37,0,0,2.74-4,7.29-4.54a6.57,6.57,0,0,1,6.53,2.92,9.92,9.92,0,0,1,7.11,2.33,8.49,8.49,0,0,1,2.87,7.24s4.45,4.13,3.07,8.27a8.81,8.81,0,0,1-4.76,5.38s.39,2.21-2.17,4.87C438,134.28,435.36,134.92,434.16,134.27Z" style="fill:#263238"></path><path d="M428.47,109.05a11.62,11.62,0,0,0-1.28,2,10,10,0,0,0-.84,2.17,6.1,6.1,0,0,0,.53,4.42,9.79,9.79,0,0,0,3.17,3.3c.68.4,1.33.84,2,1.2s1.42.68,2.13,1.05c-.75-.25-1.5-.53-2.25-.8s-1.42-.73-2.14-1.09a9.74,9.74,0,0,1-3.44-3.4,6.39,6.39,0,0,1-.44-4.79A9.61,9.61,0,0,1,428.47,109.05Z" style="fill:#263238"></path><path d="M420.24,110.49a12.37,12.37,0,0,0,4.14.27,7.56,7.56,0,0,0,2-.49,9.75,9.75,0,0,0,1.83-1,5.2,5.2,0,0,1-1.65,1.4,5.51,5.51,0,0,1-2.09.67,6.92,6.92,0,0,1-2.18-.09A6.5,6.5,0,0,1,420.24,110.49Z" style="fill:#263238"></path><path d="M430.71,130.21s5.88-3.18,7.49-.85-4.53,8.14-7.63,7.81a3,3,0,0,1-2.83-3.21Z" style="fill:#ad6359"></path><path d="M436.4,131s0,.08,0,.08c-2.2-.18-4,1-5.57,2.46a1.64,1.64,0,0,1,2.4.69c0,.06-.06.11-.1.08A1.81,1.81,0,0,0,431,134a7.82,7.82,0,0,0-1.59,1c-.17.12-.42-.12-.26-.28l0,0C430.33,132.32,433.77,130,436.4,131Z" style="fill:#263238"></path><path d="M408.75,155.14l2.36-8.7,19.37-2.71.29,6.67a29.42,29.42,0,0,1-9,7.92C416.44,161.18,411.21,160,408.75,155.14Z" style="fill:#ebebeb"></path><path d="M449.84,242.59c-.19.17-69.3-10.91-69.87-11.74-.8-1.16,17.1-65.92,30.79-80.2,3.43-3.58,15.39-5,19.7-.89C445.55,164,450.52,242,449.84,242.59Z" style="fill:#37474f"></path><path d="M419.33,163.62c-7.55,18.49-31.7,50.84-43,51.88-13,1.21-47.54-16.73-54.48-24.65-2.76-3.15,16.74-25.09,20.51-22.67,15.79,10.16,28.41,16.41,31,15.4,3.91-1.56,22.22-18.35,34-28.67C422.14,141.94,422.73,155.32,419.33,163.62Z" style="fill:#ad6359"></path><path d="M328.47,194.88c-2-.35-16.73-7.55-21.36-11.33a58.46,58.46,0,0,1-12.75-13.83c-5.44-8.35-8.41-14.63-8-17.75.48-3.63.69-4.24,12.33,9.16,6.58,7.59,11.62,7.69,15.83,6.88a56.54,56.54,0,0,1,31.65,3.38S336.21,196.21,328.47,194.88Z" style="fill:#ad6359"></path><path d="M312.41,168.31c4.38-.7-11.35-7.08-12.43-12s4-4.21,8.34-2.07c14.93,7.43,24.85,5.21,33.18,13.34S312.41,168.31,312.41,168.31Z" style="fill:#ad6359"></path><path d="M372.7,182.19c-3.57.16-25.55-11.48-25.55-11.48L326.89,199.6s38.67,18.58,48.92,17.4,32.28-30.21,41.26-47.94c8.44-16.66,5-29.53-11.68-14C405.39,155,374.56,182.1,372.7,182.19Z" style="fill:#37474f"></path><path d="M334,202.89c2.51,1.13,5.51,2.46,8.77,3.86l19-28.73c-2.91-1.37-5.94-2.87-8.46-4.14C347.45,182.62,340.38,193.23,334,202.89Z" style="fill:#246E46"></path><path d="M346.18,208.18l2.84,1.18,18.91-28.6c-.86-.35-1.78-.74-2.75-1.16C359.47,188.16,352.52,198.6,346.18,208.18Z" style="fill:#246E46"></path><path d="M376.53,216.13c8.89-2.3,23.49-21.49,26.32-25.26,1.81-2.42,3.52-4.9,5.22-7.4,3.39-5,6.63-10.1,9.78-15.25,0-.09.18,0,.14.08-2,4.07-4.22,8.06-6.62,11.93a48.39,48.39,0,0,0,3.69-4.28c.05-.07.18,0,.13.1A28,28,0,0,1,410.9,181q-3.64,5.82-7.83,11.28c-.81,1-18,24.69-27.47,25.14-3.29.16-13.73-3-15.86-4-.1,0-.09-.17,0-.15C362.83,213.88,373.36,217,376.53,216.13Z" style="fill:#263238"></path><path d="M336.56,197.71c.64-1,1.29-2,1.94-3,1.3-2,9.11-13.93,12.14-17.52.08-.1.23,0,.17.13-2.18,4.18-10.25,15.87-11.59,17.79L337.15,198c-.71,1-1.52,1.88-2.22,2.86-.07.1-.23,0-.16-.09C335.41,199.8,335.92,198.72,336.56,197.71Z" style="fill:#263238"></path><path d="M347.13,170.76c1.92.52,18.54,8.5,22.21,10.23a8.06,8.06,0,0,0,2.78,1,4.26,4.26,0,0,0,2.68-1.2c1.57-1.16,19.31-16.23,20.51-16.9.45-.25.76-.25.28.24-.83.85-18.14,15.77-19.67,16.91s-2.78,2.19-4.65,1.7c-.82-.22-23.28-10.79-24.33-11.54A.26.26,0,0,1,347.13,170.76Z" style="fill:#263238"></path></g><g id="freepik--character-1--inject-71"><path d="M64.35,381.25s-22,38.89-22,38.92C38.81,428,35.86,435,34.66,438.68a.14.14,0,0,0,0,.06,6,6,0,0,0-.51,2.69s0,.05,0,.07c1.63,2.63,63.48,32.69,66,33s3.62-6.81,2.16-9.89-20-25.19-20-25.19l21.6-39Z" style="fill:#eb9481"></path><path d="M99.15,474.28c-2.51-.32-63.37-30.16-65-32.78a.36.36,0,0,1,0-.07,6.15,6.15,0,0,1,.51-2.69s0,0,0-.05c1.2-3.74,4.16-10.68,7.68-18.53,0,0,3.71-6.79,5.18-9.15l39.34,20.33-4.57,8.09s17.54,21.88,19,25S101.67,474.61,99.15,474.28Z" style="fill:#ebebeb"></path><path d="M100.28,473.44c-2.53-.38-64.15-32.13-65.73-34.83-.62-1,3.49-10.26,8.76-21.3a3.59,3.59,0,0,0,.17-.34l40,20-.36.67s18.15,22.7,19.57,25.85S102.8,473.84,100.28,473.44Z" style="fill:#246E46"></path><path d="M100.81,470.69c-10.25-5.6-52.15-27.25-62.72-32-.08,0-.11,0,0,.06,10,5.78,52.12,27.09,62.67,32.13C101,471,101,470.81,100.81,470.69Z" style="fill:#fff"></path><path d="M86.39,439.52c-3.7-2.87-9-4.82-13.65-3.52-.17.05-.1.31.05.33A64.75,64.75,0,0,1,86.1,440,.29.29,0,0,0,86.39,439.52Z" style="fill:#263238"></path><path d="M88.42,442.81c-3.69-2.86-9-4.81-13.64-3.51-.18.05-.11.31,0,.33a64.92,64.92,0,0,1,13.31,3.69A.29.29,0,0,0,88.42,442.81Z" style="fill:#263238"></path><path d="M90.46,446.11c-3.7-2.87-9-4.81-13.65-3.51-.18,0-.1.3,0,.33a64.75,64.75,0,0,1,13.31,3.69A.3.3,0,0,0,90.46,446.11Z" style="fill:#263238"></path><path d="M50.1,429.11c-3.31-4.53-10.37.62-7.05,5.16S53.43,433.66,50.1,429.11Z" style="fill:#fff"></path><path d="M85.82,441.08l4.43,27.67a106.63,106.63,0,0,0,10,4.69c2.52.4,3.81-6.78,2.41-9.91C101.61,461.15,90.93,447.54,85.82,441.08Z" style="opacity:0.1"></path><path d="M102.36,471.72c.88,1-1.26,4.57-2.21,4.46s-68-35-69-35.87,1.52-4.73,3-4.25S102.36,471.72,102.36,471.72Z" style="fill:#246E46"></path><path d="M102.36,471.72c.88,1-1.26,4.57-2.21,4.46s-68-35-69-35.87,1.52-4.73,3-4.25S102.36,471.72,102.36,471.72Z" style="opacity:0.4"></path><path d="M47.43,407.37,91.76,431s55.94-79.73,57.06-100.68c1.55-28.93-23.15-120.78-23.15-120.78l-39.41-.27s16,94.46,14.72,110.57C100.3,328.32,47.43,407.37,47.43,407.37Z" style="fill:#263238"></path><path d="M95.63,421.88c-2.29-1.64-23.3-13.82-39.3-21.6-.1,0-.17.1-.08.17,4.85,3.2,36.21,20.38,39.26,21.6C95.61,422.09,95.73,422,95.63,421.88Z" style="fill:#37474f"></path><path d="M106.45,299.7c-1.83-13.82-3.84-27.62-6.14-41.38S95.57,230.7,92.68,217c-.35-1.68-.72-3.35-1.09-5a.2.2,0,0,0-.4.08c2.43,13.6,4.93,27.18,7.16,40.82s4.32,27.28,6.19,41q.69,5.08,1.35,10.17a91.14,91.14,0,0,1,1,10.56,27.13,27.13,0,0,1-1.69,9.89,58.13,58.13,0,0,1-4.54,8.89c-7.13,12.06-39.06,64.77-39.88,66.3-.06.1.08.2.14.1,7.67-11.89,31.43-49.85,38.66-62.11,3.26-5.53,7-11.13,8.06-17.58C108.76,313.37,107.33,306.35,106.45,299.7Z" style="fill:#37474f"></path><path d="M95.1,407.37s-.45,45-.45,45c.24,8.6.6,16.13,1.15,20a.13.13,0,0,0,0,.06,6,6,0,0,0,.71,2.64s0,.05,0,.06c2.61,1.66,71.38,1.76,73.78,1s.3-7.71-2.37-9.84-29-13.95-29-13.95l0-44.92Z" style="fill:#eb9481"></path><path d="M94.74,443.13s-.09,9.2-.09,9.23c.24,8.6.6,16.13,1.15,20a.13.13,0,0,0,0,.06,11.81,11.81,0,0,0,.71,2.64s0,.05,0,.06c2.61,1.66,71.38,1.76,73.78,1s.3-7.71-2.37-9.84-29-13.95-29-13.95v-9.37Z" style="fill:#ebebeb"></path><path d="M170.38,476c-2.43.78-71.75-.44-74.35-2.17-1-.63-1.42-10.74-1.56-23v-.39l44.72.29,0,.76s26.32,12.33,29,14.53S172.82,475.24,170.38,476Z" style="fill:#246E46"></path><path d="M169.65,473.3c-11.68-.49-58.84-1.37-70.42-1-.09,0-.09.06,0,.07,11.57.74,58.72,1.24,70.41,1.09C169.89,473.49,169.89,473.31,169.65,473.3Z" style="fill:#fff"></path><path d="M142.92,451.72c-4.59-.94-10.22-.33-13.79,2.88-.14.13,0,.32.19.28a64.41,64.41,0,0,1,13.57-2.58A.29.29,0,0,0,142.92,451.72Z" style="fill:#263238"></path><path d="M146.2,453.78c-4.58-.94-10.22-.33-13.79,2.88-.14.12,0,.32.19.27a64.51,64.51,0,0,1,13.57-2.57A.29.29,0,0,0,146.2,453.78Z" style="fill:#263238"></path><path d="M149.48,455.84c-4.58-.94-10.21-.34-13.79,2.88-.13.12.05.32.2.27a64.39,64.39,0,0,1,13.57-2.57A.29.29,0,0,0,149.48,455.84Z" style="fill:#263238"></path><path d="M171.48,473.54c1.24.5.9,4.66,0,5S95,477.17,93.72,476.86s-.72-4.91.77-5.12S171.48,473.54,171.48,473.54Z" style="fill:#246E46"></path><path d="M171.48,473.54c1.24.5.9,4.66,0,5S95,477.17,93.72,476.86s-.72-4.91.77-5.12S171.48,473.54,171.48,473.54Z" style="opacity:0.4"></path><path d="M105.77,458.44c-5-2.6-9,5.13-4,7.74S110.76,461,105.77,458.44Z" style="fill:#fff"></path><path d="M125.17,209.49v0c-.27.81-14.43,39.61-15.76,40.23-1.51.7,31.28,55.78,33.22,81.37,1.24,16.37-1.19,109-1.19,109H93.49s2.3-83.27,3.4-109.65c.42-10.23-32.92-61.17-33.33-92.89-.13-10,7.06-28.27,7.06-28.27Z" style="fill:#263238"></path><path d="M97.16,329.75c0-.42-.33-.56-.36-.12-1.09,14.28-1.34,28.48-2,42.78s-.29,17.7-.93,32c-.36,8.07,0,16.17-.21,24.24,0,.13.19.15.2,0C95.33,414.39,97.15,337.84,97.16,329.75Z" style="fill:#37474f"></path><path d="M142.62,331.7a70,70,0,0,0-1-10.52,51.66,51.66,0,0,0-3-9.87c-2.65-6.67-5.78-13.19-8.77-19.72s-6.13-13.2-9.32-19.74q-2.7-5.5-5.43-11c-1.84-3.71-3.82-7.35-5.75-11a.13.13,0,0,0-.23.11c3.07,6.6,6.1,13.22,9.17,19.81s6.09,13.23,9.11,19.85,5.95,13,8.75,19.62a65.3,65.3,0,0,1,3.42,9.7,57.35,57.35,0,0,1,1.4,10.44c.46,8.19.69,16.4,1.5,24.57,0,.1.17.09.18,0C143,346.53,142.84,339.09,142.62,331.7Z" style="fill:#37474f"></path><path d="M138,430.65c-2.79-.37-24-1.1-41.8-.34-.12,0-.11.17,0,.18,5.79.52,38.52.74,41.78.36C138,430.84,138.08,430.66,138,430.65Z" style="fill:#37474f"></path><path d="M116,247.61a91.36,91.36,0,0,0-15,5.2.16.16,0,0,0,.1.3c5-1.57,10.15-3.05,15.09-4.9A.32.32,0,0,0,116,247.61Z" style="fill:#37474f"></path><path d="M120.86,214.74c0-.16-.28-.23-.3-.05-.55,5.73-1.43,10.72-2.46,16-.48,2.46-3.88,16-8.08,14.53-.71-.24-1-1-1-2.08a17,17,0,0,1,1-4.15c.77-2.82,1.45-5.67,2-8.54a78.52,78.52,0,0,0,1.49-16.25.14.14,0,0,0-.28,0,149.76,149.76,0,0,1-3.6,22.27c-.91,3.51-3.26,8.7.42,9.63s7.12-7.8,7.84-10.21A82.63,82.63,0,0,0,120.86,214.74Z" style="fill:#37474f"></path><path d="M110.09,245.63a24.28,24.28,0,0,0-1.26,2.74,6.7,6.7,0,0,0-.64,2.3c0,.15.2.19.29.09a8.32,8.32,0,0,0,1.24-2.17c.41-.85.85-1.68,1.24-2.54A.48.48,0,0,0,110.09,245.63Z" style="fill:#37474f"></path><path d="M102.07,343.84c.25-6.81,1-14-1.23-20.54A68.84,68.84,0,0,0,96.47,314c-1.67-3.2-3.3-6.43-4.9-9.66-6.4-12.94-12.44-26.08-17.83-39.48-2.6-6.45-4.92-13.07-5.85-20a61.51,61.51,0,0,1,1.34-21.75c.41-1.77.84-3.54,1.32-5.29a.11.11,0,0,0-.2-.07,71.51,71.51,0,0,0-3.73,20.8,58.66,58.66,0,0,0,3.6,19.87c2.3,6.7,5.18,13.2,8,19.68q4.39,10,9.11,19.88c3.14,6.54,6.48,13,9.79,19.41a34.68,34.68,0,0,1,3.68,9.8,50.65,50.65,0,0,1,.4,10.73c-.57,15.08-1.87,65.26-2.06,80.3l-.06,5.73c0,.16.25.19.26,0C100.3,408.94,101.53,358.87,102.07,343.84Z" style="fill:#37474f"></path><path d="M91.32,219.25c0-.1-.17-.08-.18,0-.57,4.15-.89,8.46-2.9,12.22-1.83,3.46-5,5.68-8.54,7.24a65.28,65.28,0,0,1-6.22,2.3.13.13,0,0,0,0,.25c4-.83,8-1.75,11.44-4,3.69-2.38,5.59-6.2,6.2-10.47A37.56,37.56,0,0,0,91.32,219.25Z" style="fill:#37474f"></path><path d="M65.53,221.78l62.56-7-6.9-17.93s4-7.69,1.79-13.9c-1.93-5.33-10.83-15.17-15.72-19.86-11.89-11.43-20.36-4.72-22.91-1.15C74.63,175.56,65.53,221.78,65.53,221.78Z" style="fill:#dbdbdb"></path><path d="M103,196.8a54.57,54.57,0,0,1,8-.65c1.32,0,2.64.08,4,.18.66,0,1.31.07,2,.09a8,8,0,0,0,2.07-.12.05.05,0,0,1,0,.1,15.51,15.51,0,0,1-1.91.43,14.87,14.87,0,0,1-1.89.12c-1.35,0-2.69-.06-4-.07-2.71,0-5.42,0-8.13.14C102.92,197,102.9,196.82,103,196.8Z" style="fill:#263238"></path><path d="M97.23,200.68a58,58,0,0,1,6.31-1.91c1.07-.25,2.15-.44,3.24-.6l1.56-.21c.57-.07,1.16-.06,1.73-.14.06,0,.08.09,0,.1-.54.08-1.06.26-1.59.38l-1.61.36c-1.07.24-2.14.49-3.21.72-2.15.46-4.28.94-6.41,1.47A.09.09,0,1,1,97.23,200.68Z" style="fill:#263238"></path><path d="M101.36,167.22s-14.56-3.41-20-.58L78.69,173s-1.3,1.24-2.24.49c-2.33-1.85-5.34-7.56-2.14-13.73C77.24,154.14,87,150.34,94.05,149c6.77-1.29,11.78.66,11.81,5.47S101.36,167.22,101.36,167.22Z" style="fill:#dbdbdb"></path><path d="M101.08,165.09s2.48-7.38,1.79-10.65S95,151.18,90.7,151.9c-6.65,1.1-10.46,3.38-12.24,8.07S101.08,165.09,101.08,165.09Z" style="opacity:0.1"></path><path d="M101.08,165.09s-14.41-7.44-23.48-4.51l3.78,6.06s7.16-3.27,20,.58Z" style="fill:#dbdbdb"></path><path d="M79.14,167.85A12,12,0,0,1,84,166.28c6.51-1.41,14.76.56,14.76.56l2.47.75.28.09.16-.21c2.12-2.93,3.27-7.91,3.47-8.88a42,42,0,0,1-4.09,8.38l.44-.13L99,166c-.84-.24-9.42-1.42-15.06-.24-.44.08-.86.2-1.29.31s-.84.26-1.24.43A8,8,0,0,0,79.14,167.85Z" style="fill:#263238"></path><path d="M78.69,173a28.35,28.35,0,0,0,2.69-6.39A28.35,28.35,0,0,0,78.69,173Z" style="fill:#263238"></path><path d="M98.09,164.41a52.34,52.34,0,0,0,2.35,8.67c.7,2,4.14,8.69,6.21,7.61s-3.19-4.26-5.22-7.72-2.09-6.54-2.8-8.8Z" style="fill:#a6a6a6"></path><path d="M103.41,162.21a47.8,47.8,0,0,1,5.38,6.19c1.13,1.54,4.48,7.56,2.6,8.58s-1.6-4.58-3.19-7.88-3.9-4.91-5.25-6.61Z" style="fill:#a6a6a6"></path><path d="M88.28,159.81c.58,1,7.41,4.12,12.18,2.38,1.55-.56-.82-7-.82-7l-.06-.68L98.8,145l-12.56-3.45-1.79-.42s.39,2.59.9,5.82c0,.15.05.3.08.45s0,.36.07.53c.07.48.15,1,.23,1.46s.12.74.2,1.13.15.77.22,1.16A60,60,0,0,0,88.28,159.81Z" style="fill:#eb9481"></path><path d="M85.35,146.93a19.16,19.16,0,0,0,14.23,7.57L98.8,145l-12.56-3.45-1.79-.42S84.84,143.7,85.35,146.93Z" style="fill:#263238"></path><path d="M106.49,125.84c9.12,14.08,1.71,21.13-1.33,23.09-2.76,1.78-12.38,7.5-22.9-5.57s-6.85-21.76-.76-26.17S97.38,111.75,106.49,125.84Z" style="fill:#eb9481"></path><path d="M103.9,125.8a10.19,10.19,0,0,1-1.11.34,1.82,1.82,0,0,1-1.19.13.59.59,0,0,1-.35-.64,1.5,1.5,0,0,1,1.11-1,2.21,2.21,0,0,1,1.56,0A.63.63,0,0,1,103.9,125.8Z" style="fill:#263238"></path><path d="M93.89,130.86a10.52,10.52,0,0,0,.87-.76,1.82,1.82,0,0,0,.75-.94.59.59,0,0,0-.35-.64,1.5,1.5,0,0,0-1.45.41,2.15,2.15,0,0,0-.82,1.33A.64.64,0,0,0,93.89,130.86Z" style="fill:#263238"></path><path d="M97.61,132.49s0,.09,0,.13c.6,1,1.13,2.18.43,3,0,0,0,.08,0,0C99.06,134.91,98.34,133.31,97.61,132.49Z" style="fill:#263238"></path><path d="M96.13,132c-1.66.81.07,4.06,1.61,3.32S97.52,131.3,96.13,132Z" style="fill:#263238"></path><path d="M95.58,132.49c-.18.33-.29.8-.62,1s-.85.07-1.29-.12c0,0,0,0,0,.07.32.63.9,1.14,1.62.88a1.37,1.37,0,0,0,.62-1.74C95.85,132.47,95.66,132.35,95.58,132.49Z" style="fill:#263238"></path><path d="M103,129s.1,0,.13.05c.49,1,1.23,2.13,2.32,2,0,0,.06.05,0,.06C104.24,131.55,103.27,130.09,103,129Z" style="fill:#263238"></path><path d="M103.31,127.5c1.57-1,3.4,2.23,2,3.13S102,128.32,103.31,127.5Z" style="fill:#263238"></path><path d="M104.1,127.33c.35,0,.78.19,1.09,0s.42-.67.46-1.13c0,0,0,0,.07,0,.37.6.53,1.36,0,1.81s-1.17.12-1.67-.41C104,127.54,104,127.32,104.1,127.33Z" style="fill:#263238"></path><path d="M102.65,141.09a1.76,1.76,0,0,0,1.16.19,3,3,0,0,0,1-.79,0,0,0,0,1,.07,0,1.55,1.55,0,0,1-1.05,1.18,1.22,1.22,0,0,1-1.24-.53C102.53,141.13,102.6,141.07,102.65,141.09Z" style="fill:#263238"></path><path d="M104.86,135.17s1,1.39,1.42,2.09c0,.07-.12.19-.35.34,0,0,0,0,0,0a3.81,3.81,0,0,1-4,.53c-.08,0,0-.16,0-.15a5.78,5.78,0,0,0,3.55-.8c-.06-.22-1.84-2.31-1.73-2.38a6.93,6.93,0,0,1,1.8-.51c-2.05-3-4.56-5.54-6.56-8.5-.07-.11.08-.23.16-.15a58.59,58.59,0,0,1,7.46,8.85C107,134.87,105.21,135.14,104.86,135.17Z" style="fill:#263238"></path><path d="M105.71,137.38a4.58,4.58,0,0,1-.81,2.2,2,2,0,0,1-1,.74c-.9.28-1.36-.42-1.6-1.12a5,5,0,0,1-.24-1.15A6,6,0,0,0,105.71,137.38Z" style="fill:#263238"></path><path d="M104.9,139.58a2,2,0,0,1-1,.74c-.9.28-1.36-.42-1.6-1.12A2.15,2.15,0,0,1,104.9,139.58Z" style="fill:#ff9abb"></path><path d="M82.69,144.16a6.92,6.92,0,0,0,1.2-6.74A18,18,0,0,0,88.15,129c0,.37.34,3,.45,4.32,8.89-6.23,8.52-15,8.52-15a18.27,18.27,0,0,1,7,4.24s-2.64-6-7.51-8.6A10.56,10.56,0,0,0,86,114a15.09,15.09,0,0,0-11.54,10.21C71.24,133.92,82.69,144.16,82.69,144.16Z" style="fill:#263238"></path><path d="M95.25,128.32a19.62,19.62,0,0,1-4.15,4.09,0,0,0,1,1,0,0,16.76,16.76,0,0,0,5.17-7.55A15.62,15.62,0,0,0,97,121a10.93,10.93,0,0,0-.39-4.3c0-.1.12-.15.16,0a12.79,12.79,0,0,1,1,4.18,11.59,11.59,0,0,1-.7,4.2,13.14,13.14,0,0,1-1.81,3.33" style="fill:#263238"></path><path d="M84.82,141.53s-5.68-2.91-7.17-.64,4.5,7.68,7.45,7.29a2.85,2.85,0,0,0,2.65-3.13Z" style="fill:#eb9481"></path><path d="M79.4,142.4s0,.07,0,.07c2.1-.22,3.86.9,5.37,2.22a1.58,1.58,0,0,0-2.27.72c0,.06.06.11.1.07a1.76,1.76,0,0,1,2-.36,8.69,8.69,0,0,1,1.54.94c.16.11.4-.12.25-.26l0,0C85.24,143.54,81.89,141.36,79.4,142.4Z" style="fill:#263238"></path><path d="M78.26,118.73c2.19-1.9,6.51-14.81-4.69-20-11-5.06-22.76,9.64-14.18,19.07C65.14,124.18,73.61,122.77,78.26,118.73Z" style="fill:#263238"></path><path d="M85,177.43c15.5,16.43,36.63,28.45,42.21,28.8,6.15.38,22.79-3.73,37.94-9.76,3.1-1.23-8.63-24.33-12-23.14-8.82,3.13-25.14,10.22-28.57,9.84-3.18-.35-20.32-8.92-31.34-12.73C82.69,166.79,77.8,169.78,85,177.43Z" style="fill:#eb9481"></path><path d="M150.19,175s6.45-8,10.91-13.07c2.49-2.81,7.19-7.26,10-8.49,4.15-1.84,22.69-6.9,24-2.43,1.2,4-15.28,6.37-15.28,6.37s16.42-3.82,17,1.32S178.34,164,178.34,164s17-3.54,16.69,1.85c-.21,4.07-17.38,5.17-17.38,5.17s14.6-2.94,14.57,1.25c0,4.64-15.83,6.65-15.83,6.65-1.88,10.64-7.13,15-11.23,17.56C164.17,197.1,150.19,175,150.19,175Z" style="fill:#eb9481"></path><path d="M174,158.34c1.92-.52,3.85-1.05,5.8-1.4s3.92-.62,5.89-.79a33.65,33.65,0,0,1,7.75.1c-4.6-.25-11.61.88-13.56,1.23s-3.92.59-5.87.93C174,158.42,174,158.35,174,158.34Z" style="fill:#263238"></path><path d="M175.15,165.41c2.47-.55,4.91-1.2,7.4-1.64s4.88-.65,7.39-.92c.19,0,.14.09-.05.12-2.5.37-4.77.91-7.26,1.31s-5,.7-7.47,1.19C175.12,165.48,175.12,165.42,175.15,165.41Z" style="fill:#263238"></path><path d="M175,171.65A56.64,56.64,0,0,1,186.53,170c.19,0,.11.12-.09.14-3.83.48-6.84.83-11.38,1.63C175,171.8,175,171.68,175,171.65Z" style="fill:#263238"></path><path d="M148.68,173.87l14.17,25.85s-.13,2.61-6.22,4.68-20.14,5.1-30.67,2.7S92,186.45,85.25,178.69s-4.81-12.44,6.54-9.54,29.64,12.23,31.83,12.57,15.57-6.38,18.92-7.47A12.08,12.08,0,0,1,148.68,173.87Z" style="fill:#dbdbdb"></path><path d="M119.17,205.36a52.12,52.12,0,0,1-6.71-4.07c-1.71-1.15-15.47-11.77-17.15-12.95a20.73,20.73,0,0,1-3.69-1.74c-.05,0,0-.1,0-.08.94.44,1.89.83,2.83,1.23l-.65-.46q-3.75-2.62-7.32-5.52s0-.11,0-.07c4.37,2.91,20.76,15.33,25.14,18.22,2.16,1.43,4.31,2.89,6.6,4.11a29,29,0,0,0,7.51,2.63,82.82,82.82,0,0,0,8.9,1.24.18.18,0,0,1,0,.36C129.41,208.08,124,207.65,119.17,205.36Z" style="fill:#263238"></path></g><g id="freepik--speech-bubble--inject-71"><path d="M158.07,74.32a27.84,27.84,0,0,1-44.42,22.35L100,100.15l5.67-12.7a27.83,27.83,0,1,1,52.38-13.13Z" style="fill:#fff"></path><path d="M158.07,74.32c-.15,23.49-26.89,35.9-44.33,22.69l-13.61,3.56-.88.23.37-.83,5.63-12.72,0,.43c-6.39-11.38-3.3-26.75,6.81-34.92,18.28-15.09,45.91-2.13,46,21.56Zm0,0c.09-17.79-17.32-31.39-34.53-26.7C106.36,51.9,97.64,72,106.23,87.43l-.1.22-5.71,12.68-.51-.61,13.65-3.4c18.6,13.46,44.08,1.2,44.51-22Z" style="fill:#263238"></path><polygon points="126.62 92.12 114.15 79.5 118.34 75.36 125.62 82.73 140.76 59 145.73 62.17 126.62 92.12" style="fill:#246E46"></polygon></g></svg>
